<mxfile host="app.diagrams.net" modified="2022-02-09T13:35:33.063Z" agent="5.0 (Macintosh; Intel Mac OS X 10_15_7) AppleWebKit/537.36 (KHTML, like Gecko) Chrome/98.0.4758.80 Safari/537.36" etag="ROQlMNcnrxq9DEZmeSta" version="16.5.1" type="github">
  <diagram id="x2RH1ujoS0OBB1Sg7jxy" name="Page-1">
    <mxGraphModel dx="2066" dy="1044" grid="0" gridSize="10" guides="1" tooltips="1" connect="1" arrows="1" fold="1" page="1" pageScale="1" pageWidth="1654" pageHeight="2336" background="#283618" math="0" shadow="0">
      <root>
        <mxCell id="0" />
        <mxCell id="1" parent="0" />
        <mxCell id="ULmTW1Mc73xyBOnyRDoW-21" value="" style="rounded=0;whiteSpace=wrap;html=1;dashed=1;labelBackgroundColor=none;labelBorderColor=none;fontFamily=Courier New;fontSize=10;fontColor=#FEFAE0;fillColor=none;strokeColor=#DDA15E;" vertex="1" parent="1">
          <mxGeometry x="150" y="1116" width="500.5" height="289" as="geometry" />
        </mxCell>
        <mxCell id="YoT8PUje8HuroWcUh24c-52" value="" style="rounded=0;whiteSpace=wrap;html=1;dashed=1;labelBackgroundColor=none;labelBorderColor=none;fontFamily=Courier New;fontSize=10;fontColor=#FEFAE0;fillColor=none;strokeColor=#DDA15E;" parent="1" vertex="1">
          <mxGeometry x="169" y="539" width="363" height="259" as="geometry" />
        </mxCell>
        <mxCell id="YoT8PUje8HuroWcUh24c-78" value="" style="rounded=0;whiteSpace=wrap;html=1;dashed=1;labelBackgroundColor=none;labelBorderColor=none;fontFamily=Courier New;fontSize=10;fontColor=#FEFAE0;fillColor=none;strokeColor=#DDA15E;" parent="1" vertex="1">
          <mxGeometry x="649" y="535" width="325" height="266" as="geometry" />
        </mxCell>
        <mxCell id="YoT8PUje8HuroWcUh24c-41" value="" style="rounded=1;whiteSpace=wrap;html=1;dashed=1;fillColor=none;fontFamily=Courier New;strokeColor=#DDA15E;fontColor=#FEFAE0;" parent="1" vertex="1">
          <mxGeometry x="192.5" y="593" width="270.5" height="181" as="geometry" />
        </mxCell>
        <mxCell id="YoT8PUje8HuroWcUh24c-11" value="" style="rounded=0;whiteSpace=wrap;html=1;fillColor=none;dashed=1;fontFamily=Courier New;strokeColor=#DDA15E;fontColor=#FEFAE0;" parent="1" vertex="1">
          <mxGeometry x="120" y="136" width="442" height="247" as="geometry" />
        </mxCell>
        <mxCell id="YoT8PUje8HuroWcUh24c-13" value="" style="rounded=1;whiteSpace=wrap;html=1;dashed=1;fillColor=none;fontFamily=Courier New;strokeColor=#DDA15E;fontColor=#FEFAE0;" parent="1" vertex="1">
          <mxGeometry x="192.5" y="183" width="125.5" height="164" as="geometry" />
        </mxCell>
        <mxCell id="YoT8PUje8HuroWcUh24c-3" value="" style="rounded=1;whiteSpace=wrap;html=1;fillColor=#BC6C25;strokeColor=none;fontFamily=Courier New;fontColor=#FEFAE0;" parent="1" vertex="1">
          <mxGeometry x="1267" y="593" width="120" height="60" as="geometry" />
        </mxCell>
        <mxCell id="YoT8PUje8HuroWcUh24c-7" value="Container" style="rounded=1;whiteSpace=wrap;html=1;fillColor=#BC6C25;strokeColor=none;fontFamily=Courier New;fontColor=#FEFAE0;" parent="1" vertex="1">
          <mxGeometry x="213.25" y="232" width="84" height="39" as="geometry" />
        </mxCell>
        <mxCell id="YoT8PUje8HuroWcUh24c-10" value="" style="rounded=1;whiteSpace=wrap;html=1;fillColor=#BC6C25;strokeColor=none;fontFamily=Courier New;fontColor=#FEFAE0;" parent="1" vertex="1">
          <mxGeometry x="1261" y="473" width="120" height="60" as="geometry" />
        </mxCell>
        <mxCell id="YoT8PUje8HuroWcUh24c-12" value="Container" style="rounded=1;whiteSpace=wrap;html=1;fillColor=#BC6C25;strokeColor=none;fontFamily=Courier New;fontColor=#FEFAE0;" parent="1" vertex="1">
          <mxGeometry x="213.25" y="293" width="84" height="39" as="geometry" />
        </mxCell>
        <mxCell id="YoT8PUje8HuroWcUh24c-14" value="POD" style="text;html=1;strokeColor=none;fillColor=none;align=center;verticalAlign=middle;whiteSpace=wrap;rounded=0;dashed=1;fontFamily=Courier New;fontColor=#FEFAE0;" parent="1" vertex="1">
          <mxGeometry x="225.25" y="187" width="60" height="30" as="geometry" />
        </mxCell>
        <mxCell id="YoT8PUje8HuroWcUh24c-15" value="" style="rounded=1;whiteSpace=wrap;html=1;dashed=1;fillColor=none;fontFamily=Courier New;strokeColor=#DDA15E;fontColor=#FEFAE0;" parent="1" vertex="1">
          <mxGeometry x="365" y="181" width="125.5" height="164" as="geometry" />
        </mxCell>
        <mxCell id="YoT8PUje8HuroWcUh24c-16" value="Container" style="rounded=1;whiteSpace=wrap;html=1;fillColor=#BC6C25;strokeColor=none;fontFamily=Courier New;fontColor=#FEFAE0;" parent="1" vertex="1">
          <mxGeometry x="385.75" y="230" width="84" height="39" as="geometry" />
        </mxCell>
        <mxCell id="YoT8PUje8HuroWcUh24c-17" value="Container" style="rounded=1;whiteSpace=wrap;html=1;fillColor=#BC6C25;strokeColor=none;fontFamily=Courier New;fontColor=#FEFAE0;" parent="1" vertex="1">
          <mxGeometry x="385.75" y="291" width="84" height="39" as="geometry" />
        </mxCell>
        <mxCell id="YoT8PUje8HuroWcUh24c-18" value="POD" style="text;html=1;strokeColor=none;fillColor=none;align=center;verticalAlign=middle;whiteSpace=wrap;rounded=0;dashed=1;fontFamily=Courier New;fontColor=#FEFAE0;" parent="1" vertex="1">
          <mxGeometry x="397.75" y="185" width="60" height="30" as="geometry" />
        </mxCell>
        <mxCell id="YoT8PUje8HuroWcUh24c-19" value="NODE" style="text;html=1;strokeColor=none;fillColor=none;align=center;verticalAlign=middle;whiteSpace=wrap;rounded=0;dashed=1;fontFamily=Courier New;fontColor=#FEFAE0;" parent="1" vertex="1">
          <mxGeometry x="311" y="145" width="60" height="30" as="geometry" />
        </mxCell>
        <mxCell id="YoT8PUje8HuroWcUh24c-22" value="2-2-1 Pod &amp;amp;&amp;nbsp;Containers" style="text;html=1;strokeColor=none;fillColor=none;align=center;verticalAlign=middle;whiteSpace=wrap;rounded=0;dashed=1;labelBackgroundColor=none;labelBorderColor=none;fontFamily=Courier New;fontSize=7;fontColor=#FEFAE0;" parent="1" vertex="1">
          <mxGeometry x="225.25" y="402" width="243" height="30" as="geometry" />
        </mxCell>
        <mxCell id="YoT8PUje8HuroWcUh24c-23" value="" style="rounded=0;whiteSpace=wrap;html=1;fillColor=none;dashed=1;fontFamily=Courier New;strokeColor=#DDA15E;fontColor=#FEFAE0;" parent="1" vertex="1">
          <mxGeometry x="734" y="136" width="442" height="247" as="geometry" />
        </mxCell>
        <mxCell id="YoT8PUje8HuroWcUh24c-24" value="" style="rounded=1;whiteSpace=wrap;html=1;dashed=1;fillColor=none;fontFamily=Courier New;strokeColor=#DDA15E;fontColor=#FEFAE0;" parent="1" vertex="1">
          <mxGeometry x="806.5" y="183" width="317.5" height="181" as="geometry" />
        </mxCell>
        <mxCell id="YoT8PUje8HuroWcUh24c-25" value="Infra/Pause" style="rounded=1;whiteSpace=wrap;html=1;fillColor=#BC6C25;strokeColor=none;fontFamily=Courier New;fontColor=#FEFAE0;" parent="1" vertex="1">
          <mxGeometry x="915.25" y="213" width="100" height="39" as="geometry" />
        </mxCell>
        <mxCell id="YoT8PUje8HuroWcUh24c-36" style="edgeStyle=orthogonalEdgeStyle;rounded=0;orthogonalLoop=1;jettySize=auto;html=1;entryX=0.5;entryY=1;entryDx=0;entryDy=0;fontFamily=Courier New;fontSize=5;fontColor=#FEFAE0;labelBackgroundColor=#283618;strokeColor=#DDA15E;" parent="1" source="YoT8PUje8HuroWcUh24c-26" target="YoT8PUje8HuroWcUh24c-25" edge="1">
          <mxGeometry relative="1" as="geometry">
            <Array as="points">
              <mxPoint x="885" y="273" />
              <mxPoint x="965" y="273" />
            </Array>
          </mxGeometry>
        </mxCell>
        <mxCell id="YoT8PUje8HuroWcUh24c-26" value="Container" style="rounded=1;whiteSpace=wrap;html=1;fillColor=#BC6C25;strokeColor=none;fontFamily=Courier New;fontColor=#FEFAE0;" parent="1" vertex="1">
          <mxGeometry x="843" y="306" width="84" height="39" as="geometry" />
        </mxCell>
        <mxCell id="YoT8PUje8HuroWcUh24c-27" value="POD" style="text;html=1;strokeColor=none;fillColor=none;align=center;verticalAlign=middle;whiteSpace=wrap;rounded=0;dashed=1;fontFamily=Courier New;fontColor=#FEFAE0;" parent="1" vertex="1">
          <mxGeometry x="930.75" y="187" width="60" height="30" as="geometry" />
        </mxCell>
        <mxCell id="YoT8PUje8HuroWcUh24c-32" value="NODE" style="text;html=1;strokeColor=none;fillColor=none;align=center;verticalAlign=middle;whiteSpace=wrap;rounded=0;dashed=1;fontFamily=Courier New;fontColor=#FEFAE0;" parent="1" vertex="1">
          <mxGeometry x="925" y="145" width="60" height="30" as="geometry" />
        </mxCell>
        <mxCell id="YoT8PUje8HuroWcUh24c-33" value="&lt;span style=&quot;font-size: 5px&quot;&gt;https://k8s.iswbm.com&lt;/span&gt;" style="text;strokeColor=none;fillColor=none;align=center;verticalAlign=middle;rounded=0;dashed=1;fontFamily=Courier New;fontColor=#FEFAE0;html=1;whiteSpace=wrap;labelBorderColor=none;labelBackgroundColor=none;fontStyle=0;fontSize=7;horizontal=1;" parent="1" vertex="1">
          <mxGeometry x="835.88" y="102" width="238.25" height="15" as="geometry" />
        </mxCell>
        <mxCell id="YoT8PUje8HuroWcUh24c-34" value="2-2-2 Infra/Pause Container" style="text;html=1;strokeColor=none;fillColor=none;align=center;verticalAlign=middle;whiteSpace=wrap;rounded=0;dashed=1;labelBackgroundColor=none;labelBorderColor=none;fontFamily=Courier New;fontSize=7;fontColor=#FEFAE0;" parent="1" vertex="1">
          <mxGeometry x="839.25" y="402" width="243" height="30" as="geometry" />
        </mxCell>
        <mxCell id="YoT8PUje8HuroWcUh24c-37" style="edgeStyle=orthogonalEdgeStyle;rounded=0;orthogonalLoop=1;jettySize=auto;html=1;entryX=0.5;entryY=1;entryDx=0;entryDy=0;fontFamily=Courier New;fontSize=5;fontColor=#FEFAE0;labelBackgroundColor=#283618;strokeColor=#DDA15E;" parent="1" source="YoT8PUje8HuroWcUh24c-35" target="YoT8PUje8HuroWcUh24c-25" edge="1">
          <mxGeometry relative="1" as="geometry">
            <Array as="points">
              <mxPoint x="1054" y="273" />
              <mxPoint x="965" y="273" />
            </Array>
          </mxGeometry>
        </mxCell>
        <mxCell id="YoT8PUje8HuroWcUh24c-35" value="Container" style="rounded=1;whiteSpace=wrap;html=1;fillColor=#BC6C25;strokeColor=none;fontFamily=Courier New;fontColor=#FEFAE0;" parent="1" vertex="1">
          <mxGeometry x="1012" y="306" width="84" height="39" as="geometry" />
        </mxCell>
        <mxCell id="YoT8PUje8HuroWcUh24c-38" value="&lt;font style=&quot;font-size: 10px&quot; color=&quot;#000000&quot;&gt;Join&lt;br style=&quot;font-size: 10px&quot;&gt;Network Namespace&lt;/font&gt;" style="text;html=1;strokeColor=none;fillColor=none;align=center;verticalAlign=middle;whiteSpace=wrap;rounded=0;dashed=1;labelBackgroundColor=none;labelBorderColor=none;fontFamily=Courier New;fontSize=5;fontColor=#FEFAE0;" parent="1" vertex="1">
          <mxGeometry x="892" y="276" width="160" height="30" as="geometry" />
        </mxCell>
        <mxCell id="YoT8PUje8HuroWcUh24c-39" value="&lt;span style=&quot;font-size: 5px&quot;&gt;https://k8s.iswbm.com&lt;/span&gt;" style="text;strokeColor=none;fillColor=none;align=center;verticalAlign=middle;rounded=0;dashed=1;fontFamily=Courier New;fontColor=#FEFAE0;html=1;whiteSpace=wrap;labelBorderColor=none;labelBackgroundColor=none;fontStyle=0;fontSize=7;horizontal=1;" parent="1" vertex="1">
          <mxGeometry x="230" y="102" width="238.25" height="15" as="geometry" />
        </mxCell>
        <mxCell id="YoT8PUje8HuroWcUh24c-61" value="Proxy" style="edgeStyle=orthogonalEdgeStyle;shape=link;rounded=0;orthogonalLoop=1;jettySize=auto;html=1;fontFamily=Courier New;fontSize=10;fontColor=#FEFAE0;startArrow=diamondThin;startFill=1;labelBackgroundColor=#283618;strokeColor=#DDA15E;" parent="1" source="YoT8PUje8HuroWcUh24c-44" target="YoT8PUje8HuroWcUh24c-50" edge="1">
          <mxGeometry relative="1" as="geometry" />
        </mxCell>
        <mxCell id="YoT8PUje8HuroWcUh24c-44" value="Nginx" style="rounded=1;whiteSpace=wrap;html=1;fillColor=#BC6C25;strokeColor=none;fontFamily=Courier New;fontColor=#FEFAE0;" parent="1" vertex="1">
          <mxGeometry x="227" y="617" width="84" height="39" as="geometry" />
        </mxCell>
        <mxCell id="YoT8PUje8HuroWcUh24c-47" value="&lt;span style=&quot;font-size: 5px&quot;&gt;https://k8s.iswbm.com&lt;/span&gt;" style="text;strokeColor=none;fillColor=none;align=center;verticalAlign=middle;rounded=0;dashed=1;fontFamily=Courier New;fontColor=#FEFAE0;html=1;whiteSpace=wrap;labelBorderColor=none;labelBackgroundColor=none;fontStyle=0;fontSize=7;horizontal=1;" parent="1" vertex="1">
          <mxGeometry x="204.75" y="808" width="238.25" height="15" as="geometry" />
        </mxCell>
        <mxCell id="YoT8PUje8HuroWcUh24c-48" value="2-2-4 Faker Pod via Docker" style="text;html=1;strokeColor=none;fillColor=none;align=center;verticalAlign=middle;whiteSpace=wrap;rounded=0;dashed=1;labelBackgroundColor=none;labelBorderColor=none;fontFamily=Courier New;fontSize=7;fontColor=#FEFAE0;" parent="1" vertex="1">
          <mxGeometry x="463" y="837" width="243" height="30" as="geometry" />
        </mxCell>
        <mxCell id="YoT8PUje8HuroWcUh24c-50" value="Ghost" style="rounded=1;whiteSpace=wrap;html=1;fillColor=#BC6C25;strokeColor=none;fontFamily=Courier New;fontColor=#FEFAE0;" parent="1" vertex="1">
          <mxGeometry x="227" y="723" width="84" height="39" as="geometry" />
        </mxCell>
        <mxCell id="YoT8PUje8HuroWcUh24c-53" value="" style="shape=waypoint;sketch=0;fillStyle=solid;size=6;pointerEvents=1;points=[];fillColor=none;resizable=0;rotatable=0;perimeter=centerPerimeter;snapToPoint=1;rounded=0;dashed=1;labelBackgroundColor=none;labelBorderColor=none;fontFamily=Courier New;fontSize=10;fontColor=#FEFAE0;html=1;strokeColor=#DDA15E;" parent="1" vertex="1">
          <mxGeometry x="443" y="659.5" width="40" height="40" as="geometry" />
        </mxCell>
        <mxCell id="YoT8PUje8HuroWcUh24c-79" style="edgeStyle=entityRelationEdgeStyle;rounded=0;orthogonalLoop=1;jettySize=auto;html=1;entryX=0;entryY=0.538;entryDx=0;entryDy=0;fontFamily=Courier New;fontSize=12;fontColor=#FEFAE0;startArrow=diamondThin;startFill=1;elbow=vertical;entryPerimeter=0;labelBackgroundColor=#283618;strokeColor=#DDA15E;" parent="1" source="YoT8PUje8HuroWcUh24c-54" target="YoT8PUje8HuroWcUh24c-78" edge="1">
          <mxGeometry relative="1" as="geometry" />
        </mxCell>
        <mxCell id="YoT8PUje8HuroWcUh24c-54" value="" style="shape=waypoint;sketch=0;fillStyle=solid;size=6;pointerEvents=1;points=[];fillColor=none;resizable=0;rotatable=0;perimeter=centerPerimeter;snapToPoint=1;rounded=0;dashed=1;labelBackgroundColor=none;labelBorderColor=none;fontFamily=Courier New;fontSize=10;fontColor=#FEFAE0;html=1;strokeColor=#DDA15E;" parent="1" vertex="1">
          <mxGeometry x="513" y="659" width="40" height="40" as="geometry" />
        </mxCell>
        <mxCell id="YoT8PUje8HuroWcUh24c-57" style="rounded=0;orthogonalLoop=1;jettySize=auto;html=1;entryX=0.4;entryY=0.575;entryDx=0;entryDy=0;entryPerimeter=0;fontFamily=Courier New;fontSize=10;fontColor=#FEFAE0;startArrow=diamondThin;startFill=1;shape=link;edgeStyle=isometricEdgeStyle;elbow=vertical;width=2;labelBackgroundColor=#283618;strokeColor=#DDA15E;" parent="1" edge="1">
          <mxGeometry relative="1" as="geometry">
            <mxPoint x="466.75" y="679" as="sourcePoint" />
            <mxPoint x="530" y="679" as="targetPoint" />
          </mxGeometry>
        </mxCell>
        <mxCell id="YoT8PUje8HuroWcUh24c-55" value="80" style="text;html=1;strokeColor=none;fillColor=none;align=center;verticalAlign=middle;whiteSpace=wrap;rounded=0;dashed=1;labelBackgroundColor=none;labelBorderColor=none;fontFamily=Courier New;fontSize=10;fontColor=#FEFAE0;" parent="1" vertex="1">
          <mxGeometry x="454" y="694" width="34.25" height="17" as="geometry" />
        </mxCell>
        <mxCell id="YoT8PUje8HuroWcUh24c-56" value="8888" style="text;html=1;strokeColor=none;fillColor=none;align=center;verticalAlign=middle;whiteSpace=wrap;rounded=0;dashed=1;labelBackgroundColor=none;labelBorderColor=none;fontFamily=Courier New;fontSize=10;fontColor=#FEFAE0;" parent="1" vertex="1">
          <mxGeometry x="536" y="689.5" width="41" height="16" as="geometry" />
        </mxCell>
        <mxCell id="YoT8PUje8HuroWcUh24c-69" value="GET" style="text;html=1;strokeColor=none;fillColor=none;align=center;verticalAlign=middle;whiteSpace=wrap;rounded=0;shadow=1;labelBackgroundColor=none;labelBorderColor=none;fontFamily=Courier New;fontSize=12;fontColor=#FEFAE0;" parent="1" vertex="1">
          <mxGeometry x="571" y="644" width="46" height="30" as="geometry" />
        </mxCell>
        <mxCell id="YoT8PUje8HuroWcUh24c-71" value="NODE" style="text;html=1;strokeColor=none;fillColor=none;align=center;verticalAlign=middle;whiteSpace=wrap;rounded=0;dashed=1;fontFamily=Courier New;fontColor=#FEFAE0;" parent="1" vertex="1">
          <mxGeometry x="323" y="546" width="60" height="30" as="geometry" />
        </mxCell>
        <mxCell id="YoT8PUje8HuroWcUh24c-75" value="http://{NODE_IP}:8888" style="html=1;shadow=0;dashed=0;shape=mxgraph.bootstrap.rrect;rSize=5;strokeColor=#DDA15E;html=1;whiteSpace=wrap;fillColor=#BC6C25;fontColor=#FEFAE0;align=left;spacingLeft=0;spacing=15;fontSize=14;rounded=0;labelBackgroundColor=none;labelBorderColor=none;fontFamily=Courier New;" parent="1" vertex="1">
          <mxGeometry x="680" y="557" width="272" height="30" as="geometry" />
        </mxCell>
        <mxCell id="YoT8PUje8HuroWcUh24c-76" value="Browse" style="html=1;shadow=0;dashed=0;shape=mxgraph.bootstrap.rightButton;strokeColor=#DDA15E;fontColor=#FEFAE0;fillColor=#BC6C25;rSize=5;perimeter=none;whiteSpace=wrap;resizeHeight=1;fontSize=14;rounded=0;labelBackgroundColor=none;labelBorderColor=none;fontFamily=Courier New;" parent="YoT8PUje8HuroWcUh24c-75" vertex="1">
          <mxGeometry x="1" width="70" height="30" relative="1" as="geometry">
            <mxPoint x="-70" as="offset" />
          </mxGeometry>
        </mxCell>
        <mxCell id="YoT8PUje8HuroWcUh24c-77" value="" style="verticalLabelPosition=bottom;verticalAlign=top;html=1;shape=mxgraph.basic.patternFillRect;fillStyle=diag;step=5;fillStrokeWidth=0.2;fillStrokeColor=#dddddd;rounded=0;shadow=0;labelBackgroundColor=none;labelBorderColor=none;fontFamily=Courier New;fontSize=12;fontColor=#FEFAE0;strokeColor=#DDA15E;fillColor=none;sketch=1;" parent="1" vertex="1">
          <mxGeometry x="681" y="611" width="272" height="173" as="geometry" />
        </mxCell>
        <mxCell id="YoT8PUje8HuroWcUh24c-80" value="HTML" style="text;html=1;strokeColor=none;fillColor=none;align=center;verticalAlign=middle;whiteSpace=wrap;rounded=0;shadow=0;labelBackgroundColor=none;labelBorderColor=none;sketch=1;fontFamily=Courier New;fontSize=12;fontColor=#FEFAE0;" parent="1" vertex="1">
          <mxGeometry x="688" y="621.5" width="60" height="30" as="geometry" />
        </mxCell>
        <mxCell id="YoT8PUje8HuroWcUh24c-84" style="edgeStyle=entityRelationEdgeStyle;shape=link;rounded=0;orthogonalLoop=1;jettySize=auto;html=1;entryX=1;entryY=0.5;entryDx=0;entryDy=0;fontFamily=Courier New;fontSize=12;fontColor=#FEFAE0;startArrow=diamondThin;startFill=1;elbow=vertical;labelBackgroundColor=#283618;strokeColor=#DDA15E;" parent="1" source="YoT8PUje8HuroWcUh24c-81" target="YoT8PUje8HuroWcUh24c-44" edge="1">
          <mxGeometry relative="1" as="geometry" />
        </mxCell>
        <mxCell id="YoT8PUje8HuroWcUh24c-81" value="Pause" style="rounded=1;whiteSpace=wrap;html=1;fillColor=#BC6C25;strokeColor=none;fontFamily=Courier New;fontColor=#FEFAE0;" parent="1" vertex="1">
          <mxGeometry x="408" y="659" width="52.25" height="39" as="geometry" />
        </mxCell>
        <mxCell id="YoT8PUje8HuroWcUh24c-85" value="&lt;span style=&quot;font-size: 5px&quot;&gt;https://k8s.iswbm.com&lt;/span&gt;" style="text;strokeColor=none;fillColor=none;align=center;verticalAlign=middle;rounded=0;dashed=1;fontFamily=Courier New;fontColor=#FEFAE0;html=1;whiteSpace=wrap;labelBorderColor=none;labelBackgroundColor=none;fontStyle=0;fontSize=7;horizontal=1;" parent="1" vertex="1">
          <mxGeometry x="708" y="810" width="238.25" height="15" as="geometry" />
        </mxCell>
        <mxCell id="YoT8PUje8HuroWcUh24c-86" value="&amp;nbsp;POD&amp;nbsp;" style="text;html=1;strokeColor=none;fillColor=none;align=center;verticalAlign=middle;whiteSpace=wrap;rounded=0;shadow=0;labelBackgroundColor=#283618;labelBorderColor=none;sketch=1;fontFamily=Courier New;fontSize=12;fontColor=#FEFAE0;" parent="1" vertex="1">
          <mxGeometry x="359" y="603" width="60" height="30" as="geometry" />
        </mxCell>
        <mxCell id="ULmTW1Mc73xyBOnyRDoW-4" value="APP Container 1" style="rounded=1;whiteSpace=wrap;html=1;fillColor=#7EA6E0;strokeColor=none;fontFamily=Courier New;fontColor=#FEFAE0;" vertex="1" parent="1">
          <mxGeometry x="225.25" y="1304" width="128.75" height="39" as="geometry" />
        </mxCell>
        <mxCell id="ULmTW1Mc73xyBOnyRDoW-5" value="POD" style="text;html=1;strokeColor=none;fillColor=none;align=center;verticalAlign=middle;whiteSpace=wrap;rounded=0;dashed=1;fontFamily=Courier New;fontColor=#FEFAE0;" vertex="1" parent="1">
          <mxGeometry x="377" y="1127" width="60" height="30" as="geometry" />
        </mxCell>
        <mxCell id="ULmTW1Mc73xyBOnyRDoW-11" value="2-3-2 Pod Lifecycle" style="text;html=1;strokeColor=none;fillColor=none;align=center;verticalAlign=middle;whiteSpace=wrap;rounded=0;dashed=1;labelBackgroundColor=none;labelBorderColor=none;fontFamily=Courier New;fontSize=7;fontColor=#FEFAE0;" vertex="1" parent="1">
          <mxGeometry x="1061" y="1457" width="243" height="30" as="geometry" />
        </mxCell>
        <mxCell id="ULmTW1Mc73xyBOnyRDoW-13" value="Pause Container" style="rounded=1;whiteSpace=wrap;html=1;fillColor=#BC6C25;strokeColor=none;fontFamily=Courier New;fontColor=#FEFAE0;" vertex="1" parent="1">
          <mxGeometry x="227" y="1168" width="365" height="39" as="geometry" />
        </mxCell>
        <mxCell id="ULmTW1Mc73xyBOnyRDoW-15" value="Init Container 1" style="rounded=1;whiteSpace=wrap;html=1;fillColor=#9AC7BF;strokeColor=none;fontFamily=Courier New;fontColor=#FEFAE0;" vertex="1" parent="1">
          <mxGeometry x="227" y="1237" width="128" height="39" as="geometry" />
        </mxCell>
        <mxCell id="ULmTW1Mc73xyBOnyRDoW-17" value="..." style="text;html=1;strokeColor=none;fillColor=none;align=center;verticalAlign=middle;whiteSpace=wrap;rounded=0;sketch=1;fontColor=#FEFAE0;" vertex="1" parent="1">
          <mxGeometry x="518" y="1241.5" width="60" height="30" as="geometry" />
        </mxCell>
        <mxCell id="ULmTW1Mc73xyBOnyRDoW-19" value="..." style="text;html=1;strokeColor=none;fillColor=none;align=center;verticalAlign=middle;whiteSpace=wrap;rounded=0;sketch=1;fontColor=#FEFAE0;" vertex="1" parent="1">
          <mxGeometry x="518" y="1304" width="60" height="30" as="geometry" />
        </mxCell>
        <mxCell id="ULmTW1Mc73xyBOnyRDoW-22" value="APP Container 2" style="rounded=1;whiteSpace=wrap;html=1;fillColor=#7EA6E0;strokeColor=none;fontFamily=Courier New;fontColor=#FEFAE0;" vertex="1" parent="1">
          <mxGeometry x="385.75" y="1304" width="128.75" height="39" as="geometry" />
        </mxCell>
        <mxCell id="ULmTW1Mc73xyBOnyRDoW-23" value="Init Container 2" style="rounded=1;whiteSpace=wrap;html=1;fillColor=#9AC7BF;strokeColor=none;fontFamily=Courier New;fontColor=#FEFAE0;" vertex="1" parent="1">
          <mxGeometry x="387.5" y="1237" width="128" height="39" as="geometry" />
        </mxCell>
        <mxCell id="ULmTW1Mc73xyBOnyRDoW-25" value="&lt;span style=&quot;font-size: 5px&quot;&gt;https://k8s.iswbm.com&lt;/span&gt;" style="text;strokeColor=none;fillColor=none;align=center;verticalAlign=middle;rounded=0;dashed=1;fontFamily=Courier New;fontColor=#FEFAE0;html=1;whiteSpace=wrap;labelBorderColor=none;labelBackgroundColor=none;fontStyle=0;fontSize=7;horizontal=1;" vertex="1" parent="1">
          <mxGeometry x="1069" y="1175" width="238.25" height="15" as="geometry" />
        </mxCell>
        <mxCell id="ULmTW1Mc73xyBOnyRDoW-26" value="2-3-1 Pod Init Container" style="text;html=1;strokeColor=none;fillColor=none;align=center;verticalAlign=middle;whiteSpace=wrap;rounded=0;dashed=1;labelBackgroundColor=none;labelBorderColor=none;fontFamily=Courier New;fontSize=7;fontColor=#FEFAE0;" vertex="1" parent="1">
          <mxGeometry x="264" y="1452" width="243" height="30" as="geometry" />
        </mxCell>
        <mxCell id="ULmTW1Mc73xyBOnyRDoW-27" value="Pause Container" style="rounded=1;whiteSpace=wrap;html=1;fillColor=#BC6C25;strokeColor=none;fontFamily=Courier New;fontColor=#FEFAE0;" vertex="1" parent="1">
          <mxGeometry x="865" y="1379" width="601" height="39" as="geometry" />
        </mxCell>
        <mxCell id="ULmTW1Mc73xyBOnyRDoW-28" value="Init 1" style="rounded=1;whiteSpace=wrap;html=1;fillColor=#9AC7BF;strokeColor=none;fontFamily=Courier New;fontColor=#FEFAE0;" vertex="1" parent="1">
          <mxGeometry x="867" y="1198" width="55" height="39" as="geometry" />
        </mxCell>
        <mxCell id="ULmTW1Mc73xyBOnyRDoW-29" value="Init 2" style="rounded=1;whiteSpace=wrap;html=1;fillColor=#9AC7BF;strokeColor=none;fontFamily=Courier New;fontColor=#FEFAE0;" vertex="1" parent="1">
          <mxGeometry x="923" y="1244" width="55" height="39" as="geometry" />
        </mxCell>
        <mxCell id="ULmTW1Mc73xyBOnyRDoW-30" value="Init 3" style="rounded=1;whiteSpace=wrap;html=1;fillColor=#9AC7BF;strokeColor=none;fontFamily=Courier New;fontColor=#FEFAE0;" vertex="1" parent="1">
          <mxGeometry x="982" y="1289" width="55" height="39" as="geometry" />
        </mxCell>
        <mxCell id="ULmTW1Mc73xyBOnyRDoW-31" value="APP Container 1" style="rounded=1;whiteSpace=wrap;html=1;fillColor=#7EA6E0;strokeColor=none;fontFamily=Courier New;fontColor=#FEFAE0;" vertex="1" parent="1">
          <mxGeometry x="1039" y="1328" width="425" height="39" as="geometry" />
        </mxCell>
        <mxCell id="ULmTW1Mc73xyBOnyRDoW-32" value="" style="endArrow=none;html=1;rounded=1;sketch=0;fontColor=#FFCCE6;strokeColor=#FFFFFF;fillColor=#BC6C25;curved=0;" edge="1" parent="1">
          <mxGeometry width="50" height="50" relative="1" as="geometry">
            <mxPoint x="865" y="1378" as="sourcePoint" />
            <mxPoint x="865" y="1168" as="targetPoint" />
          </mxGeometry>
        </mxCell>
        <mxCell id="ULmTW1Mc73xyBOnyRDoW-33" value="" style="endArrow=none;html=1;rounded=1;sketch=0;fontColor=#FFCCE6;strokeColor=#FFFFFF;fillColor=#BC6C25;curved=0;" edge="1" parent="1">
          <mxGeometry width="50" height="50" relative="1" as="geometry">
            <mxPoint x="1039" y="1375" as="sourcePoint" />
            <mxPoint x="1039" y="1171" as="targetPoint" />
          </mxGeometry>
        </mxCell>
        <mxCell id="ULmTW1Mc73xyBOnyRDoW-34" value="&amp;nbsp;Pod&amp;nbsp; 生 命 周 期" style="rounded=1;whiteSpace=wrap;html=1;sketch=0;fontColor=#FFFFFF;strokeColor=none;fillColor=#97D077;fontSize=20;fontFamily=Comic Sans MS;" vertex="1" parent="1">
          <mxGeometry x="862" y="1113" width="605" height="48" as="geometry" />
        </mxCell>
        <mxCell id="ULmTW1Mc73xyBOnyRDoW-35" value="" style="endArrow=none;html=1;rounded=1;sketch=0;fontColor=#FFCCE6;strokeColor=#FFFFFF;fillColor=#BC6C25;curved=0;" edge="1" parent="1">
          <mxGeometry width="50" height="50" relative="1" as="geometry">
            <mxPoint x="1466" y="1372" as="sourcePoint" />
            <mxPoint x="1466" y="1168" as="targetPoint" />
          </mxGeometry>
        </mxCell>
        <mxCell id="ULmTW1Mc73xyBOnyRDoW-36" value="&lt;font style=&quot;font-size: 12px&quot; color=&quot;#1a1a1a&quot;&gt;Start&lt;/font&gt;" style="rounded=0;whiteSpace=wrap;html=1;sketch=0;fontFamily=Courier New;fontSize=20;fontColor=#FFFFFF;strokeColor=none;fillColor=#FFE599;" vertex="1" parent="1">
          <mxGeometry x="1042" y="1288" width="57" height="38" as="geometry" />
        </mxCell>
        <mxCell id="ULmTW1Mc73xyBOnyRDoW-38" value="&lt;font style=&quot;font-size: 12px&quot; color=&quot;#1a1a1a&quot;&gt;Readiness&lt;/font&gt;" style="rounded=0;whiteSpace=wrap;html=1;sketch=0;fontFamily=Courier New;fontSize=20;fontColor=#FFFFFF;strokeColor=none;fillColor=#FFE599;" vertex="1" parent="1">
          <mxGeometry x="1102" y="1245" width="83" height="38" as="geometry" />
        </mxCell>
        <mxCell id="ULmTW1Mc73xyBOnyRDoW-39" value="&lt;font style=&quot;font-size: 12px&quot; color=&quot;#1a1a1a&quot;&gt;Liveness&lt;/font&gt;" style="rounded=0;whiteSpace=wrap;html=1;sketch=0;fontFamily=Courier New;fontSize=20;fontColor=#FFFFFF;strokeColor=none;fillColor=#FFE599;" vertex="1" parent="1">
          <mxGeometry x="1102" y="1203.5" width="362" height="38" as="geometry" />
        </mxCell>
        <mxCell id="ULmTW1Mc73xyBOnyRDoW-40" value="&lt;font style=&quot;font-size: 12px&quot; color=&quot;#1a1a1a&quot;&gt;Stop&lt;/font&gt;" style="rounded=0;whiteSpace=wrap;html=1;sketch=0;fontFamily=Courier New;fontSize=20;fontColor=#FFFFFF;strokeColor=none;fillColor=#FFE599;" vertex="1" parent="1">
          <mxGeometry x="1407" y="1288" width="57" height="38" as="geometry" />
        </mxCell>
        <mxCell id="ULmTW1Mc73xyBOnyRDoW-41" value="" style="endArrow=classic;html=1;rounded=1;sketch=0;fontFamily=Courier New;fontSize=12;fontColor=#1A1A1A;strokeColor=#FFFFFF;fillColor=#BC6C25;curved=0;" edge="1" parent="1">
          <mxGeometry width="50" height="50" relative="1" as="geometry">
            <mxPoint x="877" y="1364" as="sourcePoint" />
            <mxPoint x="1024" y="1364" as="targetPoint" />
          </mxGeometry>
        </mxCell>
        <mxCell id="ULmTW1Mc73xyBOnyRDoW-42" value="Init&amp;nbsp;Container&amp;nbsp;" style="text;html=1;strokeColor=none;fillColor=none;align=center;verticalAlign=middle;whiteSpace=wrap;rounded=0;sketch=0;fontFamily=Courier New;fontSize=10;fontColor=#FFFFFF;" vertex="1" parent="1">
          <mxGeometry x="870" y="1331" width="157" height="30" as="geometry" />
        </mxCell>
        <mxCell id="ULmTW1Mc73xyBOnyRDoW-43" value="&lt;span style=&quot;font-size: 5px&quot;&gt;https://k8s.iswbm.com&lt;/span&gt;" style="text;strokeColor=none;fillColor=none;align=center;verticalAlign=middle;rounded=0;dashed=1;fontFamily=Courier New;fontColor=#FEFAE0;html=1;whiteSpace=wrap;labelBorderColor=none;labelBackgroundColor=none;fontStyle=0;fontSize=7;horizontal=1;" vertex="1" parent="1">
          <mxGeometry x="260" y="1377" width="238.25" height="15" as="geometry" />
        </mxCell>
      </root>
    </mxGraphModel>
  </diagram>
</mxfile>
